# xmcd CD database file
#
# Track frame offsets:
#	150
#	12921
#	24152
#	40724
#	53919
#	71680
#	83530
#	101927
#	118464
#	135378
#	146701
#	166111
#	177442
#	194341
#	210066
#	222054
#	236149
#
# Disc length: 3333 seconds
#
# Revision: 1
# Processed by: cddbd v1.5.2PL0 Copyright (c) Steve Scherf et al.
# Submitted via: CDex 1.51
#
DISCID=e70d0311
DTITLE=Robert Mizzell - Place Beyond The Sun
DYEAR=2003
DGENRE=Country
TTITLE0=Hard Working Hands
TTITLE1=Lookin' Lucky
TTITLE2=When You Let Go Of Me
TTITLE3=Something I Want To Sing About
TTITLE4=You Had Me By The Heart
TTITLE5=Mama's Rockin' Chair
TTITLE6=Ten Out Of Ten
TTITLE7=Jones Clones
TTITLE8=My Dreams Just Came True
TTITLE9=You Really Hit The Spot
TTITLE10=Place Beyond The Sun
TTITLE11=Arms Of Fire
TTITLE12=Mama Did Raise One Fool
TTITLE13=This Woman Of Mine
TTITLE14=Them Old Hank Williams Songs
TTITLE15=Words
TTITLE16=Never Tell Me It's For My Sake
EXTD=YEAR: 2003
EXTT0=
EXTT1=
EXTT2=
EXTT3=
EXTT4=
EXTT5=
EXTT6=
EXTT7=
EXTT8=
EXTT9=
EXTT10=
EXTT11=
EXTT12=
EXTT13=
EXTT14=
EXTT15=
EXTT16=
PLAYORDER=
